<?xml version="1.0" encoding="UTF-8"?>
<!DOCTYPE svg PUBLIC "-//W3C//DTD SVG 1.1//EN" "http://www.w3.org/Graphics/SVG/1.1/DTD/svg11.dtd">
<!-- Creator: CorelDRAW 2019 (64-Bit) -->
<svg xmlns="http://www.w3.org/2000/svg" xml:space="preserve" width="0.604965in" height="0.102992in" version="1.1" style="shape-rendering:geometricPrecision; text-rendering:geometricPrecision; image-rendering:optimizeQuality; fill-rule:evenodd; clip-rule:evenodd"
viewBox="0 0 264.56 45.04"
 xmlns:xlink="http://www.w3.org/1999/xlink"
 xmlns:xodm="http://www.corel.com/coreldraw/odm/2003">
 <defs>
  <style type="text/css">
   <![CDATA[
    .str0 {stroke:#827081;stroke-width:0.73;stroke-miterlimit:2.61313}
    .str1 {stroke:#827081;stroke-width:1.31;stroke-miterlimit:2.61313}
    .fil2 {fill:#827081}
    .fil1 {fill:#FEFEFE}
    .fil0 {fill:#827081;fill-rule:nonzero}
   ]]>
  </style>
 </defs>
 <g id="Layer_x0020_1">
  <metadata id="CorelCorpID_0Corel-Layer"/>
  <path class="fil0 str0" d="M68.32 8.37l-5.75 0 0 22.75 5.75 0c5.85,0 8.71,-3.77 8.71,-11.41 0,-7.6 -2.86,-11.34 -8.71,-11.34zm-0.1 20.8l-3.61 0 0 -18.81 3.61 0c4.65,0 6.86,3.05 6.86,9.39 0,6.3 -2.24,9.42 -6.86,9.42zm27.52 1.95l-6.43 -22.75 -2.89 0 -6.43 22.75 2.11 0 1.79 -6.37 7.96 0 1.79 6.37 2.11 0zm-7.99 -20.41l0.26 0 3.28 12.09 -6.86 0 3.31 -12.09zm18.94 20.86c4.68,0 7.41,-3.67 7.41,-9.94l0 -3.74c0,-6.27 -2.76,-9.98 -7.41,-9.98 -4.65,0 -7.41,3.7 -7.41,9.98l0 3.74c0,6.27 2.76,9.94 7.41,9.94zm0 -2.08c-3.38,0 -5.36,-2.89 -5.36,-7.9l0 -3.67c0,-4.97 1.98,-7.9 5.36,-7.9 3.38,0 5.36,2.89 5.36,7.9l0 3.67c0,4.97 -1.98,7.9 -5.36,7.9zm18.07 7.64c3.87,0 6.5,-2.37 6.5,-5.91l0 -16.35 -2.05 0 0 2.02 -0.13 0c-1.07,-1.5 -2.76,-2.47 -4.61,-2.47 -3.25,0 -5.85,2.86 -5.85,6.37l0 4.45c0,3.54 2.6,6.34 5.85,6.34 1.85,0 3.54,-0.94 4.61,-2.44l0.13 0 0 2.05c0,2.7 -1.66,4.03 -4.42,4.03 -1.66,0 -3.45,-1.23 -3.74,-2.83l-1.95 0.45c0.68,2.37 2.89,4.29 5.65,4.29zm0.19 -7.41c-2.34,0 -4.29,-1.88 -4.29,-4.58l0 -4.32c0,-2.63 1.95,-4.55 4.29,-4.55 2.18,0 4.26,1.92 4.26,4.13l0 5.17c0,2.27 -2.08,4.16 -4.26,4.16zm18.65 7.41c3.87,0 6.5,-2.37 6.5,-5.91l0 -16.35 -2.05 0 0 2.02 -0.13 0c-1.07,-1.5 -2.76,-2.47 -4.61,-2.47 -3.25,0 -5.85,2.86 -5.85,6.37l0 4.45c0,3.54 2.6,6.34 5.85,6.34 1.85,0 3.54,-0.94 4.61,-2.44l0.13 0 0 2.05c0,2.7 -1.66,4.03 -4.42,4.03 -1.66,0 -3.44,-1.23 -3.74,-2.83l-1.95 0.45c0.68,2.37 2.89,4.29 5.65,4.29zm0.19 -7.41c-2.34,0 -4.29,-1.88 -4.29,-4.58l0 -4.32c0,-2.63 1.95,-4.55 4.29,-4.55 2.18,0 4.26,1.92 4.26,4.13l0 5.17c0,2.27 -2.08,4.16 -4.26,4.16zm25.12 -13.26c1.07,0 2.01,0.19 2.76,0.39l0 -2.05c-0.59,-0.2 -1.56,-0.39 -2.57,-0.39 -2.63,0 -4.52,1.14 -5.65,2.67l0 -2.21 -7.83 0 0 1.95 5.78 0 0 12.35 -5.78 0 0 1.95 13.65 0 0 -1.95 -5.82 0 0 -9.68c1.01,-1.85 3.12,-3.02 5.46,-3.02zm13.13 15.08c3.05,0 5.3,-1.56 6.27,-4.19l-2.28 0c-0.78,1.46 -2.14,2.31 -4,2.31 -2.96,0 -4.71,-2.11 -4.71,-5.65l0 -0.59 11.47 0 0 -1.75c0,-4.49 -2.6,-7.28 -6.76,-7.28 -4.13,0 -6.76,2.83 -6.76,7.28l0 2.6c0,4.48 2.6,7.28 6.76,7.28zm4.71 -9.88l-9.42 0c0.1,-3.35 1.85,-5.43 4.71,-5.43 2.86,0 4.61,2.08 4.71,5.43zm13.39 15.47c3.87,0 6.5,-2.37 6.5,-5.91l0 -16.35 -2.05 0 0 2.02 -0.13 0c-1.07,-1.5 -2.76,-2.47 -4.61,-2.47 -3.25,0 -5.85,2.86 -5.85,6.37l0 4.45c0,3.54 2.6,6.34 5.85,6.34 1.85,0 3.54,-0.94 4.61,-2.44l0.13 0 0 2.05c0,2.7 -1.66,4.03 -4.42,4.03 -1.66,0 -3.44,-1.23 -3.74,-2.83l-1.95 0.45c0.68,2.37 2.89,4.29 5.65,4.29zm0.2 -7.41c-2.34,0 -4.29,-1.88 -4.29,-4.58l0 -4.32c0,-2.63 1.95,-4.55 4.29,-4.55 2.18,0 4.26,1.92 4.26,4.13l0 5.17c0,2.27 -2.08,4.16 -4.26,4.16zm18.46 1.85c1.85,0 3.54,-0.94 4.61,-2.44l0.13 0 0 1.98 2.05 0 0 -16.25 -2.05 0 0 2.02 -0.13 0c-1.07,-1.5 -2.76,-2.47 -4.61,-2.47 -3.25,0 -5.85,2.86 -5.85,6.37l0 4.45c0,3.54 2.6,6.34 5.85,6.34zm0.49 -1.85c-2.34,0 -4.29,-1.88 -4.29,-4.58l0 -4.32c0,-2.63 1.95,-4.55 4.29,-4.55 2.18,0 4.26,1.92 4.26,4.13l0 5.17c0,2.27 -2.08,4.16 -4.26,4.16zm22.78 1.85c1.07,0 2.89,-0.23 4.03,-0.49l0 -1.92c-1.23,0.32 -2.47,0.52 -3.57,0.52 -3.09,0 -4.61,-1.17 -4.61,-3.74l-0.03 -9.13 5.82 0 0 -1.95 -5.82 0 0 -4.81 -2.08 0 0 4.81 -5.75 0 0 1.95 5.75 0 0.03 9.36c0,3.54 2.18,5.39 6.24,5.39zm15.37 -0.03c3.05,0 5.3,-1.56 6.27,-4.19l-2.27 0c-0.78,1.46 -2.15,2.31 -4,2.31 -2.96,0 -4.71,-2.11 -4.71,-5.65l0 -0.59 11.47 0 0 -1.75c0,-4.49 -2.6,-7.28 -6.76,-7.28 -4.13,0 -6.76,2.83 -6.76,7.28l0 2.6c0,4.48 2.6,7.28 6.76,7.28zm4.71 -9.88l-9.42 0c0.1,-3.35 1.85,-5.43 4.71,-5.43 2.86,0 4.61,2.08 4.71,5.43z"/>
  <path class="fil1" d="M0.7 21.18c0.74,-12.05 11.12,-21.22 23.17,-20.48 12.05,0.74 21.22,11.12 20.48,23.17 -0.74,12.05 -11.12,21.22 -23.17,20.48 -12.05,-0.74 -21.22,-11.12 -20.48,-23.17z"/>
  <path class="fil2 str1" d="M0.7 21.18c0.74,-12.05 11.11,-21.22 23.17,-20.48 12.05,0.74 21.22,11.12 20.48,23.17 -0.74,12.05 -11.11,21.22 -23.17,20.48 -12.05,-0.74 -21.22,-11.12 -20.48,-23.17zm0.54 0.03c0.72,-11.75 10.84,-20.69 22.59,-19.97 11.75,0.72 20.69,10.84 19.96,22.59 0.36,-5.87 -5.22,-11 -9.71,-11.28 -5.88,-0.36 -11.2,4.09 -11.57,9.97 -0.36,5.88 -6.55,10.55 -11.58,10.24 -5.88,-0.36 -10.06,-5.67 -9.69,-11.55z"/>
 </g>
</svg>
